<?xml version="1.0" encoding="utf-8"?>
<!-- Generator: Adobe Illustrator 22.1.0, SVG Export Plug-In . SVG Version: 6.00 Build 0)  -->
<svg version="1.1" xmlns="http://www.w3.org/2000/svg" xmlns:xlink="http://www.w3.org/1999/xlink" x="0px" y="0px"
	 viewBox="0 0 369 76.5" style="enable-background:new 0 0 369 76.5;" xml:space="preserve">
<style type="text/css">
	.st0{fill:none;stroke:#43834C;stroke-width:2;stroke-miterlimit:10;}
	.st1{fill:none;stroke:#327776;stroke-width:2;stroke-miterlimit:10;}
	.st2{fill:#327776;}
	.st3{fill:#43834C;}
	.st4{fill:none;stroke:#2D6B2C;stroke-width:3;stroke-linecap:round;stroke-linejoin:round;stroke-miterlimit:10;}
	.st5{fill:#FFFFFF;}
	.st6{display:none;}
	.st7{display:inline;}
	.st8{fill:#D9D9D9;}
	.st9{fill:none;stroke:#D9D9D9;stroke-width:0.5;stroke-miterlimit:10;}
	.st10{display:inline;fill:none;stroke:#D9D9D9;stroke-width:0.5;stroke-miterlimit:10;}
	.st11{clip-path:url(#SVGID_2_);}
	.st12{fill:#5A3795;}
	.st13{clip-path:url(#SVGID_4_);}
	.st14{fill:none;}
	.st15{fill:#FFFFFF;stroke:#5A3795;stroke-miterlimit:10;}
	.st16{fill:none;stroke:#5A3795;stroke-miterlimit:10;}
	.st17{fill:#A7A9AC;}
	.st18{clip-path:url(#SVGID_6_);}
	.st19{clip-path:url(#SVGID_8_);}
</style>
<g id="Layer_1">
</g>
<g id="Mark">
	<g>
		<defs>
			<rect id="SVGID_1_" y="0" width="369" height="76.5"/>
		</defs>
		<clipPath id="SVGID_2_">
			<use xlink:href="#SVGID_1_"  style="overflow:visible;"/>
		</clipPath>
		<g id="mark" class="st11">
			<g id="yama">
				<path class="st12" d="M153,22.5V27c0,9.9,8.1,18,18,18h0c9.9,0,18-8.1,18-18v-4.5c0-2.5-2-4.5-4.5-4.5l0,0c-2.5,0-4.5,2-4.5,4.5
					V27c0,5-4,9-9,9h0c-5,0-9-4-9-9v-4.5c0-2.5-2-4.5-4.5-4.5l0,0C155,18,153,20,153,22.5z"/>
				<path class="st12" d="M198,54V36c0-9.9,8.1-18,18-18h0c9.9,0,18,8.1,18,18v18c0,2.5-2,4.5-4.5,4.5l0,0c-2.5,0-4.5-2-4.5-4.5V36
					c0-5-4-9-9-9h0c-5,0-9,4-9,9v18c0,2.5-2,4.5-4.5,4.5l0,0C200,58.5,198,56.5,198,54z"/>
				<path class="st12" d="M288.6,18c-5.6-0.2-10.7,2.2-14.1,6.1c-3.4-3.9-8.5-6.3-14.1-6.1c-9.8,0.3-17.4,8.7-17.4,18.5V54
					c0,2.5,2,4.5,4.5,4.5l0,0c2.5,0,4.5-2,4.5-4.5V36.3c0-4.8,3.6-9,8.4-9.3c5.2-0.3,9.6,3.8,9.6,9v18c0,2.5,2,4.5,4.5,4.5l0,0
					c2.5,0,4.5-2,4.5-4.5V36.3c0-4.8,3.6-9,8.4-9.3c5.2-0.3,9.6,3.8,9.6,9v18c0,2.5,2,4.5,4.5,4.5l0,0c2.5,0,4.5-2,4.5-4.5V36.5
					C306,26.7,298.4,18.3,288.6,18z"/>
				<path class="st12" d="M315,54V36c0-9.9,8.1-18,18-18h0c9.9,0,18,8.1,18,18v18c0,2.5-2,4.5-4.5,4.5l0,0c-2.5,0-4.5-2-4.5-4.5V36
					c0-5-4-9-9-9l0,0c-5,0-9,4-9,9v18c0,2.5-2,4.5-4.5,4.5l0,0C317,58.5,315,56.5,315,54z"/>
				<circle class="st12" cx="171" cy="54" r="4.5"/>
				<circle class="st12" cx="171" cy="27" r="4.5"/>
				<circle class="st12" cx="216" cy="40.5" r="4.5"/>
				<circle class="st12" cx="333" cy="40.5" r="4.5"/>
			</g>
			<g id="rectangle">
				<rect x="9" y="9" class="st12" width="126" height="58.5"/>
				<g id="text">
					<g>
						<path class="st5" d="M72,36V18h5c2.8,0,4.3,1.1,4.3,4.3c0,2.2-0.3,3.7-2.6,4.3v0c2.4,0.5,3,2.1,3,4.3c0,3.2-1.5,5-4.6,5H72z
							 M76.7,26c2.3,0,3-1.6,3-3.6c0-3-1.6-3-2.9-3h-3.2V26H76.7z M73.6,34.7h2.5c2.6,0,3.9-0.9,3.9-3.5c0-1.6-0.5-3.8-3.2-3.8h-3.2
							V34.7z"/>
						<path class="st5" d="M90,17.7c5.4,0,5.4,4.5,5.4,9.3c0,4.9,0,9.3-5.4,9.3c-5.4,0-5.4-4.5-5.4-9.3C84.6,22.2,84.7,17.7,90,17.7
							z M90,35c3.8,0,3.8-3.2,3.8-8s0-8-3.8-8c-3.8,0-3.8,3.2-3.8,8S86.3,35,90,35z"/>
						<path class="st5" d="M99.2,18h4.8c5,0,5.6,2.9,5.6,9.1c0,6-0.9,8.9-6.3,8.9h-4.1V18z M100.8,34.7h1.9c4.8,0,5.3-1.3,5.3-8.6
							c0-5.2-0.7-6.6-5.1-6.6h-2.1V34.7z"/>
						<path class="st5" d="M116.9,28.5L111.9,18h1.8l4.1,8.9l4.3-8.9h1.6l-5.1,10.5V36h-1.6V28.5z"/>
					</g>
					<g>
						<path class="st5" d="M72,58.5v-18h5c2.8,0,4.3,1.1,4.3,4.3c0,2.2-0.3,3.7-2.6,4.3v0c2.4,0.5,3,2.1,3,4.3c0,3.2-1.5,5-4.6,5H72
							z M76.7,48.5c2.3,0,3-1.6,3-3.6c0-3-1.6-3-2.9-3h-3.2v6.6H76.7z M73.6,57.2h2.5c2.6,0,3.9-0.9,3.9-3.5c0-1.6-0.5-3.8-3.2-3.8
							h-3.2V57.2z"/>
						<path class="st5" d="M88.5,51l-5.1-10.5h1.8l4.1,8.9l4.3-8.9h1.6L90.1,51v7.5h-1.6V51z"/>
					</g>
				</g>
				<g id="dash">
					<path class="st5" d="M121.5,49.5h-18c-2.5,0-4.5,2-4.5,4.5s2,4.5,4.5,4.5h18c2.5,0,4.5-2,4.5-4.5S124,49.5,121.5,49.5z"/>
				</g>
			</g>
		</g>
	</g>
</g>
<g id="Wireframe">
</g>
<g id="Layer_3">
</g>
</svg>
